<svg id="gophigure-banner" xmlns="http://www.w3.org/2000/svg" viewBox="0 0 2048 512"><rect id="background" width="2048" height="512" style="fill:#fff"/><g id="pattern-background"><rect width="368" height="512" style="fill:#b8e4ff"/></g><rect id="separator" x="368" width="70" height="512" style="fill:#262a33"/><g id="text"><path d="M1193.6,327.66q-5.41,5.82-16.16,12.27t-27,10.95q-16.21,4.51-38.13,4.51-27.18,0-47.36-11.44t-31.34-33.56q-11.16-22.11-11.16-54v-9.15q0-32,11.23-54.22t30.92-33.7q19.69-11.51,44.93-11.51,28.43,0,46.18,8.94t26.77,24.89q9,16,11,36.75H1143.4a44,44,0,0,0-4.85-16.08,23.07,23.07,0,0,0-10.13-9.57q-6.51-3.19-17.05-3.19a30.81,30.81,0,0,0-19.07,6.1q-8.11,6.11-12.55,18.79T1075.31,247v9.43q0,19.41,4.23,32.1t13.25,18.86q9,6.18,23.29,6.17a58.65,58.65,0,0,0,12-1,40,40,0,0,0,8.25-2.56,23,23,0,0,0,5.13-3.05V279.4H1110V242.51h83.62Z" style="fill:#262a33"/><path d="M1275,352.62h-51.86V150.71H1275Z" style="fill:#262a33"/><path d="M1383.58,214.5,1414,150.71h59.35L1418,251l56.72,101.65h-59.91l-31.2-64.9-31.2,64.9h-59.91L1349.19,251l-55.33-100.26h59.35Z" style="fill:#262a33"/></g><g id="pattern"><path id="pattern-piece" d="M123.07,242.46q-2.44-2.58-5-5C83.92,205.18,36.51,202.76,0,222.29v206l70.14-15.93C147.18,394.82,177.35,299.85,123.07,242.46Z" style="fill:#98ceea"/><path id="pattern-piece-2" data-name="pattern-piece" d="M114.7,0H0V38.34L70.08,22.43A102.41,102.41,0,0,0,114.7,0Z" style="fill:#98ceea"/><path id="pattern-piece-3" data-name="pattern-piece" d="M276.23,168.6a19.12,19.12,0,0,0,22.88,22.87L368,175.82V0H324.33a102.55,102.55,0,0,0-19,40.4Z" style="fill:#98ceea"/><path id="pattern-piece-4" data-name="pattern-piece" d="M368,357.29a102.44,102.44,0,0,0-62.7,73.11L286.76,512H368Z" style="fill:#98ceea"/></g></svg>